<?xml version="1.0" encoding="utf-8"?>
<!-- Generator: Adobe Illustrator 28.0.0, SVG Export Plug-In . SVG Version: 6.00 Build 0)  -->
<svg version="1.1" id="b" xmlns="http://www.w3.org/2000/svg" xmlns:xlink="http://www.w3.org/1999/xlink" x="0px" y="0px"
	 viewBox="0 0 907.9 100.1" style="enable-background:new 0 0 907.9 100.1;" xml:space="preserve">
<style type="text/css">
	.st0{fill:#FFFFFF;stroke:#000000;stroke-miterlimit:10;}
	.st1{fill:none;stroke:#000000;stroke-miterlimit:10;}
	.st2{fill:#7E8083;stroke:#000000;stroke-miterlimit:10;}
	.st3{fill:#ED2024;stroke:#000000;stroke-miterlimit:10;}
	.st4{fill:#426FB6;stroke:#000000;stroke-miterlimit:10;}
</style>
<g>
	<g>
		<path class="st0" d="M9.1,69.8L9.1,69.8c0,12.3,10.1,22.4,22.4,22.4h2.7V78.7c-4.2,0-7.5-4.9-7.5-8.8H9.1z"/>
		<path class="st0" d="M59.3,69.8L59.3,69.8c0,12.3-10.1,22.4-22.4,22.4h-2.7V78.7c4.2,0,7.5-4.9,7.5-8.8
			C41.7,69.8,59.3,69.8,59.3,69.8z"/>
		<rect x="9.1" y="31.5" class="st0" width="17.6" height="37.7"/>
		<rect x="41.7" y="31.5" class="st0" width="17.6" height="37.7"/>
		<path class="st0" d="M9.1,31.5L9.1,31.5c0-12.3,10.1-22.4,22.4-22.4h2.7v13.6c-4.2,0-7.5,4.9-7.5,8.8H9.1z"/>
		<path class="st0" d="M59.3,31.5L59.3,31.5c0-12.3-10.1-22.4-22.4-22.4h-2.7v13.6c4.2,0,7.5,4.9,7.5,8.8
			C41.7,31.5,59.3,31.5,59.3,31.5z"/>
	</g>
	<g>
		<polygon class="st0" points="92.5,53.3 110.2,53.3 124.2,90.8 106.6,90.8 		"/>
		<rect x="73.9" y="10.2" class="st0" width="17.6" height="80.4"/>
		<path class="st0" d="M122.5,34.1c0.1,0.7,0,0.7,0,1.5l0,0c0,14.5-11.7,26.2-26.2,26.2l-9.6-0.3V45l8.6,0.3c4.8,0,8.8-3.9,8.8-8.8
			v-2.4C110.1,34.1,117.3,34.1,122.5,34.1z"/>
		<path class="st0" d="M122.5,37.9c0.1-0.7,0-0.7,0-1.5l0,0c0-14.5-11.7-26.2-26.2-26.2l-9.6,0.3v16.5l8.6-0.3
			c4.8,0,8.8,3.9,8.8,8.8v2.4C110.1,37.9,117.3,37.9,122.5,37.9z"/>
	</g>
	<g>
		<rect x="135.3" y="10.7" class="st0" width="17.6" height="80.4"/>
		<rect x="149.6" y="10.7" class="st0" width="25.5" height="14.2"/>
		<rect x="149.6" y="76.9" class="st0" width="27.4" height="14.2"/>
		<rect x="149.6" y="43.3" class="st0" width="20.1" height="14.2"/>
	</g>
	<g>
		<rect x="187.2" y="10.7" class="st0" width="17.6" height="80.4"/>
		<rect x="226" y="10.2" class="st0" width="17.6" height="80.4"/>
		<polygon class="st0" points="188.5,10.7 206.1,10.7 238.7,90.6 221.1,90.6 		"/>
	</g>
</g>
<g>
	<g>
		<path class="st1" d="M9.1,69.8L9.1,69.8c0,12.3,10.1,22.4,22.4,22.4h2.7V78.7c-4.2,0-7.5-4.9-7.5-8.8H9.1z"/>
		<path class="st1" d="M59.3,69.8L59.3,69.8c0,12.3-10.1,22.4-22.4,22.4h-2.7V78.7c4.2,0,7.5-4.9,7.5-8.8
			C41.7,69.8,59.3,69.8,59.3,69.8z"/>
		<rect x="9.1" y="31.5" class="st1" width="17.6" height="37.7"/>
		<rect x="41.7" y="31.5" class="st1" width="17.6" height="37.7"/>
		<path class="st1" d="M9.1,31.5L9.1,31.5c0-12.3,10.1-22.4,22.4-22.4h2.7v13.6c-4.2,0-7.5,4.9-7.5,8.8H9.1z"/>
		<path class="st1" d="M59.3,31.5L59.3,31.5c0-12.3-10.1-22.4-22.4-22.4h-2.7v13.6c4.2,0,7.5,4.9,7.5,8.8
			C41.7,31.5,59.3,31.5,59.3,31.5z"/>
	</g>
	<g>
		<polygon class="st1" points="92.5,53.3 110.2,53.3 124.2,90.8 106.6,90.8 		"/>
		<rect x="73.9" y="10.2" class="st1" width="17.6" height="80.4"/>
		<path class="st1" d="M122.5,34.1c0.1,0.7,0,0.7,0,1.5l0,0c0,14.5-11.7,26.2-26.2,26.2l-9.6-0.3V45l8.6,0.3c4.8,0,8.8-3.9,8.8-8.8
			v-2.4C110.1,34.1,117.3,34.1,122.5,34.1z"/>
		<path class="st1" d="M122.5,37.9c0.1-0.7,0-0.7,0-1.5l0,0c0-14.5-11.7-26.2-26.2-26.2l-9.6,0.3v16.5l8.6-0.3
			c4.8,0,8.8,3.9,8.8,8.8v2.4C110.1,37.9,117.3,37.9,122.5,37.9z"/>
	</g>
	<g>
		<rect x="135.3" y="10.7" class="st1" width="17.6" height="80.4"/>
		<rect x="149.6" y="10.7" class="st1" width="25.5" height="14.2"/>
		<rect x="149.6" y="76.9" class="st1" width="27.4" height="14.2"/>
		<rect x="149.6" y="43.3" class="st1" width="20.1" height="14.2"/>
	</g>
	<g>
		<rect x="187.2" y="10.7" class="st1" width="17.6" height="80.4"/>
		<rect x="226" y="10.2" class="st1" width="17.6" height="80.4"/>
		<polygon class="st1" points="188.5,10.7 206.1,10.7 238.7,90.6 221.1,90.6 		"/>
	</g>
</g>
<g>
	<g>
		<rect x="778.1" y="10.4" class="st2" width="17.6" height="80.4"/>
		<rect x="816.9" y="9.9" class="st2" width="17.6" height="80.4"/>
		<polygon class="st2" points="779.4,10.4 797,10.4 829.6,90.3 812,90.3 		"/>
	</g>
	<g>
		<polygon class="st2" points="552.9,52.9 570.5,52.9 584.5,90.4 566.9,90.4 		"/>
		<rect x="534.2" y="9.8" class="st2" width="17.6" height="80.4"/>
		<path class="st2" d="M582.8,33.7c0.1,0.7,0,0.7,0,1.5l0,0c0,14.5-11.7,26.2-26.2,26.2l-9.6-0.3V44.7l8.6,0.3
			c4.8,0,8.8-3.9,8.8-8.8v-2.4C570.5,33.7,577.7,33.7,582.8,33.7z"/>
		<path class="st2" d="M582.8,37.5c0.1-0.7,0-0.7,0-1.5l0,0c0-14.5-11.7-26.2-26.2-26.2l-9.6,0.3v16.5l8.6-0.3
			c4.8,0,8.8,3.9,8.8,8.8v2.4C570.5,37.5,577.7,37.5,582.8,37.5z"/>
	</g>
	<g>
		<rect x="482.5" y="9.9" class="st2" width="17.6" height="80.4"/>
		<rect x="496.9" y="9.9" class="st2" width="25.5" height="14.2"/>
		<rect x="496.9" y="76.1" class="st2" width="27.4" height="14.2"/>
		<rect x="496.9" y="42.5" class="st2" width="20.1" height="14.2"/>
	</g>
	<g>
		<rect x="605.5" y="10.4" class="st2" width="17.6" height="80.4"/>
		<rect x="587.4" y="10.4" class="st2" width="53.9" height="14.2"/>
	</g>
	<g>
		<polygon class="st2" points="414.9,9.8 432.5,9.8 453.6,90.6 436,90.6 		"/>
		<polygon class="st2" points="475.3,10 457.7,10 436.6,90.7 454.2,90.7 		"/>
	</g>
	<rect x="745.6" y="9.4" class="st2" width="17.6" height="80.4"/>
	<rect x="651.7" y="10.2" class="st2" width="17.6" height="80.4"/>
	<g>
		<polygon class="st3" points="291.9,91.1 309.5,91.1 330.6,10.3 312.9,10.3 		"/>
		<polygon class="st3" points="352.3,90.9 334.6,90.9 313.6,10.1 331.2,10.1 		"/>
		<rect x="308.1" y="63.5" class="st3" width="28" height="14.2"/>
	</g>
	<g>
		<rect x="390.8" y="33.7" class="st4" width="17.6" height="33.9"/>
		<path class="st4" d="M408.4,33.7L408.4,33.7c0-12.3-10.1-23.2-22.4-23.2h-8.3v14.4c0.2,0,6,0,6.2,0c3.9,0.4,6.9,5,6.9,8.8H408.4
			L408.4,33.7z"/>
		<rect x="360.1" y="10.4" class="st4" width="17.6" height="80.4"/>
		<path class="st4" d="M408.4,67.6L408.4,67.6c0,12.3-10.1,23.2-22.4,23.2h-8.3V76.4c0.2,0,6,0,6.2,0c3.9-0.4,6.9-5,6.9-8.8H408.4
			L408.4,67.6z"/>
	</g>
	<g>
		<path class="st2" d="M848.5,69.1L848.5,69.1c0,12.3,10.1,22.4,22.4,22.4h2.7V78c-4.2,0-7.5-4.9-7.5-8.8H848.5L848.5,69.1z"/>
		<path class="st2" d="M898.8,69.1L898.8,69.1c0,12.3-10.1,22.4-22.4,22.4h-2.7V78c4.2,0,7.5-4.9,7.5-8.8H898.8L898.8,69.1z"/>
		<rect x="848.5" y="30.8" class="st2" width="17.6" height="37.7"/>
		<rect x="881.1" y="45.3" class="st2" width="17.6" height="23.2"/>
		<rect x="872.7" y="45.3" class="st2" width="26.1" height="14.1"/>
		<path class="st2" d="M848.5,30.8L848.5,30.8c0-12.3,10.1-22.4,22.4-22.4h2.7V22c-4.2,0-7.5,4.9-7.5,8.8H848.5L848.5,30.8z"/>
		<path class="st2" d="M898.8,30.8L898.8,30.8c0-12.3-10.1-22.4-22.4-22.4h-2.7V22c4.2,0,7.5,4.9,7.5,8.8H898.8L898.8,30.8z"/>
	</g>
	<g>
		<path class="st2" d="M682.3,30.2L682.3,30.2c0-12.3,10.1-22.4,22.4-22.4h2.7v13.6c-4.2,0-7.5,4.9-7.5,8.8H682.3L682.3,30.2z"/>
		<path class="st2" d="M732.5,30.2L732.5,30.2c0-12.3-10.1-22.4-22.4-22.4h-2.7v13.6c4.2,0,7.5,4.9,7.5,8.8H732.5L732.5,30.2z"/>
		<path class="st2" d="M682.3,69.9L682.3,69.9c0,12.3,10.1,22.4,22.4,22.4h2.7V78.7c-4.2,0-7.5-4.9-7.5-8.8H682.3L682.3,69.9z"/>
		<path class="st2" d="M732.5,69.9L732.5,69.9c0,12.3-10.1,22.4-22.4,22.4h-2.7V78.7c4.2,0,7.5-4.9,7.5-8.8H732.5L732.5,69.9z"/>
		<path class="st2" d="M682.3,30.2h17.6c0,11.9,34.2,14.5,32.6,39.6h-17.6C714.9,53.3,684.4,57.1,682.3,30.2z"/>
	</g>
</g>
<g>
	<g>
		<rect x="778.1" y="10.4" class="st1" width="17.6" height="80.4"/>
		<rect x="816.9" y="9.9" class="st1" width="17.6" height="80.4"/>
		<polygon class="st1" points="779.4,10.4 797,10.4 829.6,90.3 812,90.3 		"/>
	</g>
	<g>
		<polygon class="st1" points="552.9,52.9 570.5,52.9 584.5,90.4 566.9,90.4 		"/>
		<rect x="534.2" y="9.8" class="st1" width="17.6" height="80.4"/>
		<path class="st1" d="M582.8,33.7c0.1,0.7,0,0.7,0,1.5l0,0c0,14.5-11.7,26.2-26.2,26.2l-9.6-0.3V44.7l8.6,0.3
			c4.8,0,8.8-3.9,8.8-8.8v-2.4C570.5,33.7,577.7,33.7,582.8,33.7z"/>
		<path class="st1" d="M582.8,37.5c0.1-0.7,0-0.7,0-1.5l0,0c0-14.5-11.7-26.2-26.2-26.2l-9.6,0.3v16.5l8.6-0.3
			c4.8,0,8.8,3.9,8.8,8.8v2.4C570.5,37.5,577.7,37.5,582.8,37.5z"/>
	</g>
	<g>
		<rect x="482.5" y="9.9" class="st1" width="17.6" height="80.4"/>
		<rect x="496.9" y="9.9" class="st1" width="25.5" height="14.2"/>
		<rect x="496.9" y="76.1" class="st1" width="27.4" height="14.2"/>
		<rect x="496.9" y="42.5" class="st1" width="20.1" height="14.2"/>
	</g>
	<g>
		<rect x="605.5" y="10.4" class="st1" width="17.6" height="80.4"/>
		<rect x="587.4" y="10.4" class="st1" width="53.9" height="14.2"/>
	</g>
	<g>
		<polygon class="st1" points="414.9,9.8 432.5,9.8 453.6,90.6 436,90.6 		"/>
		<polygon class="st1" points="475.3,10 457.7,10 436.6,90.7 454.2,90.7 		"/>
	</g>
	<rect x="745.6" y="9.4" class="st1" width="17.6" height="80.4"/>
	<rect x="651.7" y="10.2" class="st1" width="17.6" height="80.4"/>
	<g>
		<polygon class="st1" points="291.9,91.1 309.5,91.1 330.6,10.3 312.9,10.3 		"/>
		<polygon class="st1" points="352.3,90.9 334.6,90.9 313.6,10.1 331.2,10.1 		"/>
		<rect x="308.1" y="63.5" class="st1" width="28" height="14.2"/>
	</g>
	<g>
		<rect x="390.8" y="33.7" class="st1" width="17.6" height="33.9"/>
		<path class="st1" d="M408.4,33.7L408.4,33.7c0-12.3-10.1-23.2-22.4-23.2h-8.3v14.4c0.2,0,6,0,6.2,0c3.9,0.4,6.9,5,6.9,8.8H408.4
			L408.4,33.7z"/>
		<rect x="360.1" y="10.4" class="st1" width="17.6" height="80.4"/>
		<path class="st1" d="M408.4,67.6L408.4,67.6c0,12.3-10.1,23.2-22.4,23.2h-8.3V76.4c0.2,0,6,0,6.2,0c3.9-0.4,6.9-5,6.9-8.8H408.4
			L408.4,67.6z"/>
	</g>
	<g>
		<path class="st1" d="M848.5,69.1L848.5,69.1c0,12.3,10.1,22.4,22.4,22.4h2.7V78c-4.2,0-7.5-4.9-7.5-8.8H848.5L848.5,69.1z"/>
		<path class="st1" d="M898.8,69.1L898.8,69.1c0,12.3-10.1,22.4-22.4,22.4h-2.7V78c4.2,0,7.5-4.9,7.5-8.8H898.8L898.8,69.1z"/>
		<rect x="848.5" y="30.8" class="st1" width="17.6" height="37.7"/>
		<rect x="881.1" y="45.3" class="st1" width="17.6" height="23.2"/>
		<rect x="872.7" y="45.3" class="st1" width="26.1" height="14.1"/>
		<path class="st1" d="M848.5,30.8L848.5,30.8c0-12.3,10.1-22.4,22.4-22.4h2.7V22c-4.2,0-7.5,4.9-7.5,8.8H848.5L848.5,30.8z"/>
		<path class="st1" d="M898.8,30.8L898.8,30.8c0-12.3-10.1-22.4-22.4-22.4h-2.7V22c4.2,0,7.5,4.9,7.5,8.8H898.8L898.8,30.8z"/>
	</g>
	<g>
		<path class="st1" d="M682.3,30.2L682.3,30.2c0-12.3,10.1-22.4,22.4-22.4h2.7v13.6c-4.2,0-7.5,4.9-7.5,8.8H682.3L682.3,30.2z"/>
		<path class="st1" d="M732.5,30.2L732.5,30.2c0-12.3-10.1-22.4-22.4-22.4h-2.7v13.6c4.2,0,7.5,4.9,7.5,8.8H732.5L732.5,30.2z"/>
		<path class="st1" d="M682.3,69.9L682.3,69.9c0,12.3,10.1,22.4,22.4,22.4h2.7V78.7c-4.2,0-7.5-4.9-7.5-8.8H682.3L682.3,69.9z"/>
		<path class="st1" d="M732.5,69.9L732.5,69.9c0,12.3-10.1,22.4-22.4,22.4h-2.7V78.7c4.2,0,7.5-4.9,7.5-8.8H732.5L732.5,69.9z"/>
		<path class="st1" d="M682.3,30.2h17.6c0,11.9,34.2,14.5,32.6,39.6h-17.6C714.9,53.3,684.4,57.1,682.3,30.2z"/>
	</g>
</g>
</svg>
